<?xml version="1.0" encoding="UTF-8" standalone="no"?>
<svg xmlns:dc="http://purl.org/dc/elements/1.1/" 
	xmlns:cc="http://creativecommons.org/ns#" 
	xmlns:rdf="http://www.w3.org/1999/02/22-rdf-syntax-ns#" 
	xmlns:svg="http://www.w3.org/2000/svg" 
	xmlns="http://www.w3.org/2000/svg" id="svg8" version="1.1" viewBox="0 0 3.163594 5.426128" height="15.38115pt" width="8.9676676pt">
	<g transform="translate(-0.4756955,-291.34876)" id="layer1">
		<path id="path819" d="m 2.1166666,296.73542 c 1.0583334,0 1.4937588,-0.60933 1.4872739,-1.25879 -0.00409,-0.4101 -0.4118466,-1.76194 -0.5198424,-1.74394 0.062857,0.25778 0.1127074,0.50959 -0.06407,0.52999 -0.4806833,0.0555 -0.457834,-0.88136 -0.4978612,-1.36357 -0.042605,-0.51327 0.063109,-1.053 0.2833695,-1.5189 0.00242,-0.005 -1.1694075,0.82337 -1.4220276,1.88494 -0.1138817,0.47855 0.1796788,1.29403 -0.1621241,1.55005 -0.128749,0.0964 -0.31114355,-0.43751 -0.37752031,-1.28194 -0.0404555,0.0661 -0.46865645,1.37035 -0.2879669,1.98196 0.21610132,0.73149 0.57972041,1.1851 1.56076911,1.2202 z" style="fill:#ff6600;stroke:#d45500;stroke-width:0.07055556;stroke-linecap:square;stroke-linejoin:miter;stroke-miterlimit:4;stroke-dasharray:none;stroke-opacity:1" />
		<path id="path819-3" d="m 2.1232591,296.73961 c 0.6192702,0 1.096445,-0.64039 0.9754499,-1.15004 -0.1222896,-0.5151 -1.274988,-1.39378 -1.0406103,-2.49336 -0.3234033,0.46947 -0.3570138,1.0684 -0.360798,1.72699 -0.00222,0.38647 0.1676938,0.77252 -0.1077808,0.86781 -0.3238623,0.11203 -0.69120723,-0.22976 -0.73004673,-0.72386 -0.023672,0.0387 0.0388553,0.65496 0.14458343,1.01284 0.1264489,0.42802 0.5451542,0.73908 1.1192025,0.75962 z" style="fill:#ffccaa;stroke:#ffb380;stroke-width:0.07055556;stroke-linecap:square;stroke-linejoin:miter;stroke-miterlimit:4;stroke-dasharray:none;stroke-opacity:1" />
	</g>
</svg>
